<?xml version="1.0" encoding="iso-8859-1"?>
<svg version="1.1" id="Capa_1" xmlns="http://www.w3.org/2000/svg" xmlns:xlink="http://www.w3.org/1999/xlink" x="0px" y="0px"
	 viewBox="0 0 511.992 511.992" style="enable-background:new 0 0 511.992 511.992;" xml:space="preserve">
<g>
	<g>
		<path d="M506.021,19.53c-4.448-3.584-10.592-4.512-15.968-2.4l-480,192c-5.92,2.368-9.888,8.032-10.048,14.432
			c-0.16,6.4,3.488,12.256,9.312,14.944l150.688,69.568l336-276.096l-272,305.632v158.368l113.536-105.952l87.744,40.48
			c2.144,0.96,4.448,1.472,6.72,1.472c2.56,0,5.152-0.64,7.456-1.856c4.448-2.336,7.488-6.592,8.32-11.52l64-384
			C512.709,28.938,510.533,23.146,506.021,19.53z"/>
	</g>
</g>
<g>
</g>
<g>
</g>
<g>
</g>
<g>
</g>
<g>
</g>
<g>
</g>
<g>
</g>
<g>
</g>
<g>
</g>
<g>
</g>
<g>
</g>
<g>
</g>
<g>
</g>
<g>
</g>
<g>
</g>
</svg>
