<?xml version="1.0" encoding="iso-8859-1"?>
<!-- Generator: Adobe Illustrator 18.1.1, SVG Export Plug-In . SVG Version: 6.00 Build 0)  -->
<svg version="1.1" id="Capa_1" xmlns="http://www.w3.org/2000/svg" xmlns:xlink="http://www.w3.org/1999/xlink" x="0px" y="0px"
	 viewBox="0 0 25.951 25.951" style="enable-background:new 0 0 25.951 25.951;" xml:space="preserve">
<g>
	<path style="fill:#030104;" d="M3,0.225h18c1.656,0,3,1.344,3,3v10c0,0.313-0.062,0.609-0.15,0.893l-2.056-1.832
		c-0.451-0.457-1.358-0.662-2.078-0.369l-3.692-3.779L23,2.7L12,8.632L1,2.7l6.977,5.438l-5.77,5.906l7.037-5.025L12,10.813
		l2.758-1.795l4.467,3.191c-0.451,0.366-0.725,0.922-0.725,1.531v1.043c-1.135,0.168-2.473,0.565-3.703,1.441H3
		c-1.656,0-3-1.344-3-3V3.225C0,1.569,1.344,0.225,3,0.225z"/>
\	</g>
</g>
<g>
</g>
<g>
</g>
<g>
</g>
<g>
</g>
<g>
</g>
<g>
</g>
<g>
</g>
<g>
</g>
<g>
</g>
<g>
</g>
<g>
</g>
<g>
</g>
<g>
</g>
<g>
</g>
<g>
</g>
</svg>
